<svg id="Layer_1" data-name="Layer 1" xmlns="http://www.w3.org/2000/svg" width="24" height="24" viewBox="0 0 24 24"><defs><style>.cls-1{fill:#d0d0d0;}</style></defs><path class="cls-1" d="M18.67,14.33a6.68,6.68,0,0,0-3.91-6.08c-.68-.31-.71-.47-.75-.7-.06-.39-.12-1.2-.16-1.79a.66.66,0,0,0,.62-.67.67.67,0,0,0-.67-.67h-.35v-1A.45.45,0,0,0,13,3H11a.45.45,0,0,0-.44.45v1H10.2a.67.67,0,0,0-.67.67.66.66,0,0,0,.62.67c0,.59-.1,1.39-.16,1.77s-.07.41-.75.72a6.67,6.67,0,1,0,9.43,6.08ZM6.94,16.13a5.26,5.26,0,0,1-.3-1.57,1.85,1.85,0,0,1,0-.23,5.36,5.36,0,0,1,.09-1,5.26,5.26,0,0,1,.33-1.11,5.4,5.4,0,0,1,3.13-3,2.15,2.15,0,0,0,.92-.87,2.36,2.36,0,0,0,.22-.65c.07-.46.14-1.37.18-2h1c0,.62.11,1.53.18,2a2.16,2.16,0,0,0,.22.62,2.49,2.49,0,0,0,1.3,1.07,5.36,5.36,0,0,1,3.13,4.69h0l-.09.15,0,0-.14.19h0l-.19.21,0,0-.23.21-.05,0a2,2,0,0,1-.28.2h0a2,2,0,0,1-.32.17l-.07,0-.36.11h-.08a2.74,2.74,0,0,1-.43,0A2.94,2.94,0,0,1,12.6,14,4.32,4.32,0,0,0,9,11.71h0a4,4,0,0,0-.49.72,4,4,0,0,0-.32.77h0A4.23,4.23,0,0,0,8,14.33a4.16,4.16,0,0,0,.23,1.35.67.67,0,0,1-.4.86.93.93,0,0,1-.23,0,.65.65,0,0,1-.49-.23A.55.55,0,0,1,6.94,16.13Z"/></svg>