<svg id="Layer_1" data-name="Layer 1" xmlns="http://www.w3.org/2000/svg" width="24" height="24" viewBox="0 0 24 24"><defs><style>.cls-1{fill:#d0d0d0;}</style></defs><path class="cls-1" d="M12,3a.66.66,0,0,0-.66.66v1H7a.44.44,0,0,0-.44.44v2A.44.44,0,0,0,7,7.5H17a.44.44,0,0,0,.44-.44v-2A.44.44,0,0,0,17,4.65H12.66v-1A.66.66,0,0,0,12,3Z"/><path class="cls-1" d="M12.66,17.53,12,17.11l-.66.42v2.81a.66.66,0,1,0,1.32,0Z"/><path class="cls-1" d="M16.3,18.37a.41.41,0,0,0,.23-.38V8.52H7.47V18a.42.42,0,0,0,.22.38.47.47,0,0,0,.46,0L12,15.9l3.85,2.46a.55.55,0,0,0,.24.07A.39.39,0,0,0,16.3,18.37Z"/></svg>