<svg id="Layer_1" data-name="Layer 1" xmlns="http://www.w3.org/2000/svg" width="24" height="24" viewBox="0 0 24 24"><defs><style>.cls-1{fill:#d0d0d0;}</style></defs><path class="cls-1" d="M18,9.82a.49.49,0,0,0,.36.15.34.34,0,0,0,.14,0,.52.52,0,0,0,.36-.37L20,4.63A.52.52,0,0,0,19.37,4l-5,1.15a.5.5,0,0,0-.37.36.51.51,0,0,0,.13.5l1.37,1.35-1,1c-.63-.62-1.72-1.65-2.79-2.5a10.85,10.85,0,0,0-1.57-1.09,3.74,3.74,0,0,0-1.84-.45A6.43,6.43,0,0,0,4.15,6.09a.52.52,0,0,0-.1.58A.51.51,0,0,0,4.58,7a6.8,6.8,0,0,1,.9-.06A6.18,6.18,0,0,1,9.59,8.38h0l2.47,2.47L9.52,13.4,7.2,13.09a.52.52,0,0,0-.43.15L4.2,15.81a.52.52,0,0,0,.3.87L7,17l.31,2.49a.51.51,0,0,0,.35.42.41.41,0,0,0,.16,0,.51.51,0,0,0,.36-.15l2.57-2.57a.5.5,0,0,0,.14-.42l-.29-2.31,2.55-2.55,2.39,2.39h0l.08.07a6.31,6.31,0,0,1,1.43,5,.51.51,0,0,0,.28.53.59.59,0,0,0,.22.05.48.48,0,0,0,.36-.15c1.2-1.2,2.44-3.94,1.3-6A12.33,12.33,0,0,0,17.93,12c-.81-1-1.73-2-2.3-2.55l1-1ZM10.68,8l.94-.94c.85.72,1.68,1.51,2.2,2l-1,1Zm6.17,4.28-1,.95-2-2,1-1C15.39,10.68,16.15,11.48,16.85,12.3Z"/></svg>