<svg id="Layer_1" data-name="Layer 1" xmlns="http://www.w3.org/2000/svg" width="24" height="24" viewBox="0 0 24 24"><defs><style>.cls-1{fill:#d0d0d0;}</style></defs><path class="cls-1" d="M6.48,8V18.58a9.53,9.53,0,0,1,2.81.24,9.23,9.23,0,0,1,1.76.67V9.31A1.81,1.81,0,0,1,11.13,9a9.55,9.55,0,0,0-1.84-.71A9.53,9.53,0,0,0,6.48,8Z"/><path class="cls-1" d="M15.63,17.14V6.59S12.32,6.93,12,9.43V20c.32-2.5,3.63-2.84,3.63-2.84Z"/><path class="cls-1" d="M17.52,18.58V8a9.09,9.09,0,0,0-.94,0V18l-.85.1a4,4,0,0,0-2.48,1.25,8.34,8.34,0,0,1,1.46-.53A9.53,9.53,0,0,1,17.52,18.58Z"/><path class="cls-1" d="M7.06,19.51a3.26,3.26,0,0,0-.5,0l-1,.08V9.45h-1V20H9.85a8.1,8.1,0,0,0-.79-.26A8.27,8.27,0,0,0,7.06,19.51Z"/><path class="cls-1" d="M18.47,19.59l-1-.06a3.26,3.26,0,0,0-.5,0,8.27,8.27,0,0,0-2,.23,6.47,6.47,0,0,0-.78.26h5.26V9.45h-1Z"/><polygon class="cls-1" points="11.2 4.72 10.76 3.49 10.32 4.72 9.1 5.16 10.32 5.59 10.76 6.82 11.2 5.59 12.43 5.16 11.2 4.72"/><polygon class="cls-1" points="7.75 4.67 8.04 3.87 8.84 3.58 8.04 3.3 7.75 2.5 7.47 3.3 6.67 3.58 7.47 3.87 7.75 4.67"/><path class="cls-1" d="M13.19,2.5a.51.51,0,0,0-.51-.5.51.51,0,0,0,0,1A.51.51,0,0,0,13.19,2.5Z"/><path class="cls-1" d="M6,6.16a.5.5,0,1,0,0-1,.5.5,0,0,0,0,1Z"/></svg>