<svg id="Layer_1" data-name="Layer 1" xmlns="http://www.w3.org/2000/svg" width="24" height="24" viewBox="0 0 24 24"><defs><style>.cls-1{fill:#d0d0d0;}</style></defs><path class="cls-1" d="M17.27,19.85a.44.44,0,0,0,.12-.36l-.85-8.41H7.46l-.85,8.41a.44.44,0,0,0,.12.36.47.47,0,0,0,.34.15h3.21a.47.47,0,0,0,.47-.47V16.81a1.25,1.25,0,0,1,2.5,0v2.72a.47.47,0,0,0,.47.47h3.21A.49.49,0,0,0,17.27,19.85Z"/><path class="cls-1" d="M6.86,9.67H17.14a.47.47,0,0,0,.47-.47V4.47A.47.47,0,0,0,17.14,4H15.06a.47.47,0,0,0-.47.47V6.08H13.51V4.47A.47.47,0,0,0,13,4H11a.47.47,0,0,0-.47.47V6.08H9.41V4.47A.47.47,0,0,0,8.94,4H6.86a.47.47,0,0,0-.47.47V9.2A.47.47,0,0,0,6.86,9.67Z"/></svg>